HIERARCHY
ROOT Hips
{
	OFFSET 46.037300 -14.101215 92.957703
	CHANNELS 6 Xposition Yposition Zposition Xrotation Yrotation Zrotation
	JOINT spine
	{
		OFFSET 0.000000 -0.429886 7.475601
		CHANNELS 3 Xrotation Yrotation Zrotation
		JOINT spine1
		{
			OFFSET 0.000000 -0.000002 9.923012
			CHANNELS 3 Xrotation Yrotation Zrotation
			JOINT spine2
			{
				OFFSET 0.000000 -0.000001 9.508041
				CHANNELS 3 Xrotation Yrotation Zrotation
				JOINT Neck
				{
					OFFSET 0.000000 -1.163845 24.411095
					CHANNELS 3 Xrotation Yrotation Zrotation
					JOINT Head
					{
						OFFSET 0.000000 -0.000001 7.375229
						CHANNELS 3 Xrotation Yrotation Zrotation
						End Site
						{
							OFFSET 0.000000 5.887407 17.852203
						}
					}
				}
				JOINT RightShoulder
				{
					OFFSET -4.003559 0.557467 10.267906
					CHANNELS 3 Xrotation Yrotation Zrotation
					JOINT RightArm
					{
						OFFSET 0.000000 -0.000003 13.467300
						CHANNELS 3 Xrotation Yrotation Zrotation
						JOINT RightArmRoll
						{
							OFFSET 0.000000 -0.000001 6.798569
							CHANNELS 3 Xrotation Yrotation Zrotation
							JOINT RightForeArm
							{
								OFFSET 0.000000 -0.000003 19.801804
								CHANNELS 3 Xrotation Yrotation Zrotation
								JOINT RightForeArmRoll
								{
									OFFSET 0.000000 -0.000001 7.629044
									CHANNELS 3 Xrotation Yrotation Zrotation
									JOINT RightHand
									{
										OFFSET 0.000000 -0.000003 15.309799
										CHANNELS 3 Xrotation Yrotation Zrotation
										End Site
										{
											OFFSET 0.000000 0.000000 0.100006
										}
									}
								}
							}
						}
					}
				}
				JOINT LeftShoulder
				{
					OFFSET 4.003559 0.557467 10.267906
					CHANNELS 3 Xrotation Yrotation Zrotation
					JOINT LeftArm
					{
						OFFSET 0.000000 -0.000003 13.467300
						CHANNELS 3 Xrotation Yrotation Zrotation
						JOINT LeftArmRoll
						{
							OFFSET 0.000000 -0.000001 6.798569
							CHANNELS 3 Xrotation Yrotation Zrotation
							JOINT LeftForeArm
							{
								OFFSET 0.000000 -0.000003 19.801804
								CHANNELS 3 Xrotation Yrotation Zrotation
								JOINT LeftForeArmRoll
								{
									OFFSET 0.000000 -0.000001 7.629044
									CHANNELS 3 Xrotation Yrotation Zrotation
									JOINT LeftHand
									{
										OFFSET 0.000000 -0.000003 15.309799
										CHANNELS 3 Xrotation Yrotation Zrotation
										End Site
										{
											OFFSET 0.000000 0.000000 0.100006
										}
									}
								}
							}
						}
					}
				}
			}
		}
	}
	JOINT RightUpLeg
	{
		OFFSET -6.626091 1.019270 -1.215050
		CHANNELS 3 Xrotation Yrotation Zrotation
		JOINT RightUpLegRoll
		{
			OFFSET 0.000000 -0.000003 17.951698
			CHANNELS 3 Xrotation Yrotation Zrotation
			JOINT RightLeg
			{
				OFFSET 0.000000 0.000004 -22.230400
				CHANNELS 3 Xrotation Yrotation Zrotation
				JOINT RightLegRoll
				{
					OFFSET 0.000000 -0.000004 22.303200
					CHANNELS 3 Xrotation Yrotation Zrotation
					JOINT RightFoot
					{
						OFFSET 0.000000 -0.000003 18.563599
						CHANNELS 3 Xrotation Yrotation Zrotation
						JOINT RightToeBase
						{
							OFFSET 0.000000 -0.000003 15.518295
							CHANNELS 3 Xrotation Yrotation Zrotation
							End Site
							{
								OFFSET 0.006577 0.866262 7.515381
							}
						}
					}
				}
			}
		}
	}
	JOINT LeftUpLeg
	{
		OFFSET 6.626091 1.019270 -1.215050
		CHANNELS 3 Xrotation Yrotation Zrotation
		JOINT LeftUpLegRoll
		{
			OFFSET 0.000000 -0.000003 17.951797
			CHANNELS 3 Xrotation Yrotation Zrotation
			JOINT LeftLeg
			{
				OFFSET 0.000000 -0.000004 22.230293
				CHANNELS 3 Xrotation Yrotation Zrotation
				JOINT LeftLegRoll
				{
					OFFSET 0.000000 -0.000003 22.509308
					CHANNELS 3 Xrotation Yrotation Zrotation
					JOINT LeftFoot
					{
						OFFSET 0.000000 -0.000004 18.357498
						CHANNELS 3 Xrotation Yrotation Zrotation
						JOINT LeftToeBase
						{
							OFFSET 0.000000 -0.000002 15.518295
							CHANNELS 3 Xrotation Yrotation Zrotation
							End Site
							{
								OFFSET -0.029476 0.866262 7.515381
							}
						}
					}
				}
			}
		}
	}
}
MOTION
Frames: 13
Frame Time: 0.041667
49.999298 -18.731321 94.231392 -2.204112 0.458375 79.509645 -1.488731 0.077610 0.268305 1.025024 0.150845 0.537730 2.670070 0.157278 0.535880 -3.727193 9.447400 -3.707589 3.229185 -11.368791 -4.089846 -11.879672 -54.867555 -13.831032 87.860405 -19.657286 82.196621 -0.000007 0.000006 0.000016 66.027978 -4.927033 0.117268 0.000001 -0.000001 -3.007480 -5.000072 -8.000540 0.000070 -17.704962 71.191014 21.007369 116.418921 70.098040 -132.335530 -0.000003 0.000015 0.000010 4.726935 7.014054 0.524378 0.000000 -0.000016 3.000019 -5.000162 8.000396 -0.000101 1.488708 -184.453521 -2.707083 -179.999991 0.000005 -1.162999 169.840140 -2.624250 -0.634112 -0.000008 0.000002 0.194793 72.180353 6.783809 2.203722 25.456860 -7.361967 -0.000020 -4.360062 -185.427355 -0.062174 -0.000005 -0.000005 -1.085991 -12.569071 2.746138 0.726834 0.000009 -0.000004 -0.128542 66.817405 -6.886112 -2.274559 25.840737 7.352419 -0.585846 
50.007698 -18.717318 94.229897 -2.199209 0.458863 79.427519 -1.486890 0.071832 0.267970 1.028733 0.139319 0.537018 2.673779 0.145745 0.535306 -3.728170 9.555661 -3.660430 3.252837 -11.448214 -4.049876 -11.861764 -54.834671 -13.808104 88.123907 -19.903154 82.097358 -0.000004 0.000002 0.000015 66.001600 -4.940168 0.140082 0.000003 -0.000004 -3.007501 -5.000066 -8.000540 0.000067 -17.776148 71.246776 21.086546 116.514052 70.170085 -132.485657 -0.000004 0.000015 0.000010 4.682651 6.989715 0.527602 -0.000001 -0.000015 3.000021 -5.000160 8.000394 -0.000101 1.472700 -184.433563 -2.695258 -179.999991 0.000005 -1.162999 169.821712 -2.625094 -0.634138 -0.000006 0.000002 0.195056 72.182846 6.783840 2.203574 25.456860 -7.361967 -0.000020 -4.336319 -185.416564 -0.064843 -0.000005 -0.000004 -1.086091 -12.551646 2.755344 0.726822 0.000008 -0.000004 -0.128434 66.813525 -6.886125 -2.274804 25.835085 7.352441 -0.577287 
49.979900 -18.710226 94.237999 -2.196001 0.459613 79.347619 -1.485580 0.067124 0.267550 1.031373 0.129927 0.536137 2.676428 0.136342 0.534536 -3.719118 9.632594 -3.617459 3.267786 -11.504265 -4.011111 -11.841717 -54.833425 -13.784268 88.364288 -20.152490 81.975063 -0.000008 0.000004 0.000015 65.972743 -4.954772 0.164267 0.000002 -0.000002 -3.007520 -5.000069 -8.000536 0.000071 -17.830547 71.282443 21.147007 116.657787 70.236051 -132.682695 -0.000004 0.000015 0.000010 4.639262 6.963050 0.530922 0.000001 -0.000015 3.000020 -5.000158 8.000396 -0.000101 1.459168 -184.417594 -2.685566 -179.999991 0.000005 -1.162999 169.807683 -2.624979 -0.634779 -0.000008 0.000002 0.195316 72.183714 6.783872 2.203625 25.456858 -7.361967 -0.000021 -4.315418 -185.408723 -0.068844 -0.000005 -0.000004 -1.086192 -12.538732 2.764815 0.727063 0.000009 -0.000004 -0.128372 66.811763 -6.886149 -2.274920 25.829028 7.352468 -0.568187 
49.991100 -18.703918 94.247200 -2.194835 0.460620 79.270554 -1.484850 0.063668 0.267045 1.032843 0.123032 0.535077 2.677897 0.129434 0.533559 -3.698636 9.673004 -3.579296 3.272714 -11.532764 -3.973730 -11.819160 -54.869095 -13.759343 88.576892 -20.405750 81.825666 -0.000004 0.000002 0.000017 65.941542 -4.970984 0.190097 0.000001 -0.000001 -3.007540 -5.000067 -8.000540 0.000068 -17.865140 71.294560 21.185428 116.859359 70.294654 -132.935972 -0.000004 0.000015 0.000010 4.596962 6.933634 0.534362 0.000000 -0.000015 3.000020 -5.000160 8.000394 -0.000101 1.448479 -184.403619 -2.678230 -179.999991 0.000005 -1.162998 169.798776 -2.624905 -0.635189 -0.000007 0.000002 0.195575 72.182867 6.783903 2.203581 25.456858 -7.361967 -0.000022 -4.297751 -185.404857 -0.074314 -0.000005 -0.000004 -1.086300 -12.531026 2.774553 0.727597 0.000008 -0.000004 -0.128358 66.812193 -6.886199 -2.275102 25.822758 7.352502 -0.558687 
49.946499 -18.726921 94.236000 -2.195960 0.462379 79.195531 -1.484909 0.061414 0.266411 1.032742 0.118533 0.533766 2.677796 0.124920 0.532298 -3.664971 9.677184 -3.545561 3.266728 -11.533831 -3.937351 -11.793496 -54.941543 -13.732602 88.762700 -20.663621 81.648594 -0.000007 0.000003 0.000017 65.907979 -4.988656 0.217199 0.000001 -0.000001 -3.007560 -5.000069 -8.000538 0.000070 -17.879132 71.283201 21.200914 117.120409 70.346700 -133.247292 -0.000004 0.000015 0.000010 4.554118 6.901455 0.537970 0.000002 -0.000015 3.000021 -5.000161 8.000395 -0.000100 1.440619 -184.394631 -2.673460 -179.999991 0.000005 -1.162999 169.795675 -2.624881 -0.636328 -0.000007 0.000002 0.195836 72.179766 6.783924 2.203574 25.456860 -7.361968 -0.000020 -4.284365 -185.403955 -0.081654 -0.000005 -0.000004 -1.086411 -12.529839 2.784925 0.728528 0.000008 -0.000005 -0.128409 66.815656 -6.886216 -2.275389 25.814987 7.352536 -0.546901 
49.953995 -18.714323 94.248589 -2.199282 0.465259 79.121868 -1.485841 0.060111 0.265627 1.030892 0.115934 0.532159 2.675946 0.122302 0.530722 -3.618442 9.651385 -3.515211 3.250666 -11.512044 -3.901485 -11.764688 -55.044713 -13.703712 88.927260 -20.926262 81.447841 -0.000005 0.000003 0.000016 65.871881 -5.007487 0.245322 0.000002 -0.000002 -3.007579 -5.000068 -8.000538 0.000072 -17.874602 71.251905 21.195827 117.433601 70.394211 -133.609920 -0.000003 0.000015 0.000011 4.509295 6.867004 0.541797 0.000003 -0.000015 3.000022 -5.000160 8.000396 -0.000100 1.435098 -184.387650 -2.670953 -179.999991 0.000005 -1.162998 169.798380 -2.623907 -0.637021 -0.000007 0.000002 0.196102 72.174295 6.783938 2.203507 25.456858 -7.361966 -0.000021 -4.275611 -185.406018 -0.090860 -0.000005 -0.000004 -1.086521 -12.535368 2.796209 0.729899 0.000007 -0.000004 -0.128534 66.822363 -6.886261 -2.275477 25.804689 7.352579 -0.531331 
49.964699 -18.711023 94.260101 -2.204576 0.469084 79.049358 -1.487521 0.059645 0.264709 1.027542 0.115009 0.530292 2.672596 0.121354 0.528867 -3.560780 9.599330 -3.487888 3.225877 -11.470475 -3.866172 -11.733221 -55.174927 -13.672985 89.072736 -21.193167 81.226085 -0.000006 0.000003 0.000014 65.833345 -5.027457 0.274577 0.000001 -0.000002 -3.007603 -5.000069 -8.000536 0.000069 -17.854103 71.203363 21.172963 117.792800 70.437166 -134.017710 -0.000003 0.000015 0.000011 4.463023 6.830593 0.545764 0.000001 -0.000015 3.000021 -5.000159 8.000397 -0.000101 1.431650 -184.383661 -2.670461 -179.999991 0.000005 -1.162998 169.806207 -2.622008 -0.637309 -0.000007 0.000001 0.196372 72.166679 6.783936 2.203572 25.456856 -7.361966 -0.000020 -4.270786 -185.411045 -0.101652 -0.000005 -0.000004 -1.086631 -12.546612 2.808270 0.731646 0.000008 -0.000005 -0.128721 66.831980 -6.886259 -2.275674 25.792466 7.352617 -0.512646 
49.947895 -18.722923 94.250992 -2.211576 0.473664 78.977990 -1.489828 0.059903 0.263670 1.022922 0.115530 0.528203 2.667976 0.121850 0.526767 -3.493712 9.524753 -3.463224 3.193661 -11.411914 -3.831460 -11.699505 -55.328436 -13.640727 89.201444 -21.463960 80.986243 -0.000005 0.000001 0.000017 65.792350 -5.048459 0.304781 0.000002 -0.000000 -3.007620 -5.000069 -8.000540 0.000065 -17.819818 71.139842 21.134723 118.191069 70.475804 -134.463544 -0.000004 0.000015 0.000011 4.415827 6.792577 0.549825 0.000001 -0.000015 3.000021 -5.000159 8.000394 -0.000101 1.430015 -184.381653 -2.671685 -179.999991 0.000005 -1.163000 169.818242 -2.620145 -0.637417 -0.000008 0.000001 0.196645 72.157260 6.783997 2.203452 25.456858 -7.361966 -0.000020 -4.269207 -185.418025 -0.113817 -0.000005 -0.000004 -1.086739 -12.562571 2.820953 0.733711 0.000008 -0.000004 -0.128964 66.843824 -6.886317 -2.275845 25.778531 7.352660 -0.491494 
50.001499 -18.697420 94.260895 -2.220038 0.478822 78.907755 -1.492641 0.060771 0.262535 1.017283 0.117270 0.525924 2.662326 0.123563 0.524464 -3.418959 9.431357 -3.440830 3.155363 -11.339229 -3.797378 -11.663988 -55.501461 -13.607208 89.315700 -21.738166 80.731176 -0.000007 0.000001 0.000017 65.748808 -5.070510 0.336029 0.000002 -0.000000 -3.007638 -5.000069 -8.000539 0.000069 -17.774288 71.063931 21.083925 118.622013 70.510140 -134.941056 -0.000005 0.000016 0.000010 4.368226 6.753261 0.553950 0.000002 -0.000015 3.000020 -5.000159 8.000395 -0.000101 1.429903 -184.382664 -2.674390 -179.999991 0.000005 -1.162998 169.833774 -2.618295 -0.637349 -0.000008 0.000001 0.196918 72.146544 6.784008 2.203406 25.456856 -7.361965 -0.000020 -4.270155 -185.426986 -0.127081 -0.000005 -0.000004 -1.086861 -12.582242 2.834130 0.736027 0.000008 -0.000004 -0.129254 66.857635 -6.886329 -2.275983 25.763479 7.352685 -0.468552 
49.988705 -18.695717 94.264603 -2.229690 0.484381 78.838661 -1.495850 0.062135 0.261320 1.010852 0.120002 0.523489 2.655907 0.126266 0.521994 -3.338253 9.322860 -3.420362 3.112297 -11.255298 -3.763966 -11.627151 -55.690316 -13.572798 89.417872 -22.015199 80.463651 -0.000004 0.000001 0.000018 65.702820 -5.093599 0.368318 -0.000000 -0.000001 -3.007660 -5.000070 -8.000536 0.000071 -17.719720 70.977912 21.023005 119.078720 70.540582 -135.443389 -0.000003 0.000015 0.000010 4.320739 6.712973 0.558070 0.000002 -0.000015 3.000021 -5.000159 8.000396 -0.000101 1.431061 -184.384659 -2.678238 -179.999991 0.000005 -1.162998 169.851915 -2.616480 -0.638164 -0.000009 0.000001 0.197193 72.134646 6.784027 2.203431 25.456858 -7.361967 -0.000019 -4.272964 -185.437942 -0.141159 -0.000005 -0.000004 -1.086970 -12.604721 2.847633 0.738536 0.000009 -0.000005 -0.129581 66.872811 -6.886341 -2.276132 25.747614 7.352715 -0.444474 
49.997799 -18.685919 94.267891 -2.240262 0.490138 78.770570 -1.499331 0.063881 0.260043 1.003882 0.123500 0.520937 2.648937 0.129732 0.519396 -3.253311 9.202979 -3.401472 3.065791 -11.163203 -3.731256 -11.589418 -55.891158 -13.537795 89.510401 -22.294704 80.186571 -0.000005 0.000005 0.000014 65.654360 -5.117608 0.401474 0.000004 -0.000002 -3.007679 -5.000071 -8.000535 0.000070 -17.658549 70.884277 20.954619 119.554702 70.567254 -135.964068 -0.000004 0.000015 0.000010 4.273880 6.672044 0.562165 0.000001 -0.000015 3.000021 -5.000161 8.000398 -0.000102 1.433202 -184.387650 -2.682988 -179.999991 0.000005 -1.162999 169.872050 -2.613686 -0.637714 -0.000007 0.000002 0.197465 72.122105 6.784061 2.203299 25.456860 -7.361967 -0.000020 -4.276902 -185.448884 -0.155922 -0.000005 -0.000004 -1.087090 -12.628805 2.861350 0.741168 0.000007 -0.000004 -0.129939 66.888821 -6.886367 -2.276235 25.731554 7.352723 -0.419933 
50.000599 -18.683125 94.258202 -2.251475 0.495917 78.703594 -1.502961 0.065897 0.258719 0.996613 0.127537 0.518298 2.641667 0.133736 0.516706 -3.165861 9.075429 -3.383857 3.017155 -11.065719 -3.699309 -11.551301 -56.100281 -13.502611 89.595833 -22.576181 79.902872 -0.000004 0.000002 0.000015 65.603325 -5.142556 0.435687 0.000002 -0.000001 -3.007703 -5.000073 -8.000537 0.000070 -17.593102 70.785588 20.881398 120.042993 70.590572 -136.496044 -0.000003 0.000015 0.000009 4.228186 6.630787 0.566172 0.000000 -0.000015 3.000021 -5.000160 8.000397 -0.000101 1.436069 -184.391639 -2.688346 -179.999991 0.000005 -1.162998 169.893087 -2.610898 -0.638234 -0.000007 0.000002 0.197739 72.109121 6.784076 2.203287 25.456858 -7.361968 -0.000021 -4.281302 -185.461820 -0.170929 -0.000005 -0.000004 -1.087210 -12.653690 2.875125 0.743861 0.000008 -0.000004 -0.130316 66.905255 -6.886397 -2.276410 25.715589 7.352723 -0.395585 
49.949799 -18.692421 94.260201 -2.263040 0.501530 78.637518 -1.506631 0.068067 0.257367 0.989279 0.131883 0.515611 2.634328 0.138050 0.513963 -3.077595 8.943900 -3.367235 2.967738 -10.965829 -3.668189 -11.513292 -56.313933 -13.467617 89.676771 -22.859048 79.615519 -0.000005 0.000003 0.000018 65.549810 -5.168398 0.470859 0.000000 -0.000002 -3.007721 -5.000069 -8.000539 0.000070 -17.525603 70.684234 20.805762 120.535927 70.611158 -137.031736 -0.000004 0.000015 0.000010 4.184163 6.589546 0.570079 0.000002 -0.000015 3.000020 -5.000161 8.000395 -0.000100 1.439379 -184.396625 -2.694064 -179.999991 0.000005 -1.162998 169.914643 -2.608127 -0.638724 -0.000007 0.000002 0.198009 72.096048 6.784086 2.203385 25.456858 -7.361966 -0.000020 -4.285454 -185.474757 -0.186059 -0.000005 -0.000004 -1.087331 -12.678280 2.888811 0.746546 0.000008 -0.000004 -0.130707 66.921695 -6.886417 -2.276583 25.700135 7.352709 -0.372081 
